<svg id="exp2" xmlns="http://www.w3.org/2000/svg" width="62.883" height="62.883" viewBox="0 0 62.883 62.883">
  <defs>
    <style>
      .cls-1 {
        fill: #363636;
      }
    </style>
  </defs>
  <path id="Path_987" data-name="Path 987" class="cls-1" d="M5.307,5.307a1.094,1.094,0,0,0-.223.35,1.1,1.1,0,0,0,.223,1.155A1.064,1.064,0,1,0,6.813,5.307,1.11,1.11,0,0,0,5.307,5.307Z" transform="translate(-1.82 -1.819)"/>
  <path id="Path_988" data-name="Path 988" class="cls-1" d="M8.657,5.085a.989.989,0,0,0-.35.223,1.075,1.075,0,0,0,0,1.505A1.06,1.06,0,0,0,10.12,6.06a1.115,1.115,0,0,0-.307-.753,1.078,1.078,0,0,0-1.155-.223Z" transform="translate(-1.64 -1.82)"/>
  <path id="Path_989" data-name="Path 989" class="cls-1" d="M11.657,5.084a1.094,1.094,0,0,0-.35.223,1.075,1.075,0,0,0,0,1.505,1.224,1.224,0,0,0,.35.223,1.06,1.06,0,0,0,.4.085,1.049,1.049,0,0,0,1.06-1.06,1.115,1.115,0,0,0-.307-.753A1.1,1.1,0,0,0,11.657,5.084Z" transform="translate(-1.46 -1.819)"/>
  <rect id="Rectangle_458" data-name="Rectangle 458" class="cls-1" width="14.373" height="1.797" transform="translate(13.632 18.113)"/>
  <rect id="Rectangle_459" data-name="Rectangle 459" class="cls-1" width="14.373" height="1.797" transform="translate(13.632 24.328)"/>
  <rect id="Rectangle_460" data-name="Rectangle 460" class="cls-1" width="19.763" height="1.797" transform="translate(13.608 30.543)"/>
  <rect id="Rectangle_461" data-name="Rectangle 461" class="cls-1" width="13.475" height="1.797" transform="translate(13.636 36.759)"/>
  <rect id="Rectangle_462" data-name="Rectangle 462" class="cls-1" width="8.085" height="1.797" transform="translate(13.655 42.974)"/>
  <rect id="Rectangle_463" data-name="Rectangle 463" class="cls-1" width="6.288" height="1.797" transform="translate(13.661 49.189)"/>
  <path id="Path_990" data-name="Path 990" class="cls-1" d="M60.87,14.577a3.983,3.983,0,0,0-2.837,1.176l-3.63,3.63V5.144A3.144,3.144,0,0,0,51.258,2H5.144A3.144,3.144,0,0,0,2,5.144V61.739a3.144,3.144,0,0,0,3.144,3.144H51.258A3.144,3.144,0,0,0,54.4,61.739V30.731l9.3-9.3a4.012,4.012,0,0,0-2.837-6.85ZM4.1,5.144A1.048,1.048,0,0,1,5.144,4.1H51.258a1.048,1.048,0,0,1,1.048,1.048V8.288H4.1Zm48.21,56.595a1.048,1.048,0,0,1-1.048,1.048H5.144A1.048,1.048,0,0,1,4.1,61.739V10.384h48.21V21.479l-6.288,6.288V24.623L34.923,13.529H10.384V59.643H46.018V39.116l6.288-6.288ZM27.285,46.5l-2.837,8.511,8.511-2.837,3.012-3.012,7.95-7.95V57.547H12.48V15.625H33.441v10.48h10.48v3.758L30.3,43.488Zm3.012-.048,2.71,2.71-1.18,1.18L27.762,51.7l1.355-4.065Zm5.24-29.345,6.9,6.9h-6.9ZM34.489,47.68l-2.71-2.71L56.5,20.251l2.71,2.71ZM62.225,19.945l-1.534,1.534-2.71-2.71,1.534-1.534a1.917,1.917,0,1,1,2.711,2.711Z" transform="translate(-2 -2)"/>
</svg>
