<svg xmlns="http://www.w3.org/2000/svg" width="62.883" height="62.888" viewBox="0 0 62.883 62.888">
  <defs>
    <style>
      .cls-1 {
        fill: #363636;
      }
    </style>
  </defs>
  <path id="exp3" class="cls-1" d="M62.027,29.246,51.928,24.2l10.1-5.05a2.459,2.459,0,0,0,0-4.394L33.04.259a2.459,2.459,0,0,0-2.2,0L1.855,14.752a2.459,2.459,0,0,0,0,4.394l10.1,5.05-10.1,5.049a2.459,2.459,0,0,0,0,4.394l10.1,5.05L1.855,43.74a2.459,2.459,0,0,0,0,4.394L30.842,62.628a2.458,2.458,0,0,0,2.2,0L62.027,48.134a2.459,2.459,0,0,0,0-4.394l-10.1-5.049,10.1-5.05A2.459,2.459,0,0,0,62.027,29.246ZM31.941,5.2,55.435,16.95,31.941,28.7,8.447,16.95ZM55.435,45.937,31.941,57.684,8.447,45.937l9-4.5,13.4,6.7a2.458,2.458,0,0,0,2.2,0l13.4-6.7ZM31.941,43.191,8.447,31.444l9-4.5,13.4,6.7a2.458,2.458,0,0,0,2.2,0l13.4-6.7,9,4.5Zm0,0" transform="translate(-0.499)"/>
</svg>
