<svg id="exp4" xmlns="http://www.w3.org/2000/svg" width="62.883" height="76.658" viewBox="0 0 62.883 76.658">
  <defs>
    <style>
      .cls-1 {
        fill: #363636;
      }
    </style>
  </defs>
  <path id="Path_991" data-name="Path 991" class="cls-1" d="M108.723,44.981l-5.655-14.138L108.723,16.7a2.246,2.246,0,0,0-2.085-3.08h-26.2V8.384A2.246,2.246,0,0,0,78.19,6.139h-27.7V2.246a2.246,2.246,0,1,0-4.492,0V74.412a2.246,2.246,0,0,0,4.492,0V40.575H68.458v5.24A2.251,2.251,0,0,0,70.7,48.061h35.933a2.246,2.246,0,0,0,2.085-3.08Zm-32.778-8.9H50.492V10.63H75.944Zm.182,7.486,3.652-3.652a2.272,2.272,0,0,0,.658-1.588V18.116H103.32L98.563,30.009a2.247,2.247,0,0,0,0,1.668l4.757,11.892Z" transform="translate(-46)"/>
</svg>
