<svg xmlns="http://www.w3.org/2000/svg" width="62.883" height="60.787" viewBox="0 0 62.883 60.787">
  <defs>
    <style>
      .cls-1 {
        fill: #363636;
      }
    </style>
  </defs>
  <g id="exp5" transform="translate(-619 -12188.999)">
    <path id="Path_992" data-name="Path 992" class="cls-1" d="M30.938,26.755a1.067,1.067,0,0,1-.448-.1L12.6,18.32a1.038,1.038,0,0,1,0-1.886L30.49,8.1a1.062,1.062,0,0,1,.9,0l17.886,8.336a1.038,1.038,0,0,1,0,1.886L31.387,26.656A1.067,1.067,0,0,1,30.938,26.755ZM15.524,17.378l15.415,7.184,15.415-7.184L30.938,10.193Z" transform="translate(619.503 12189.335)"/>
    <path id="Path_993" data-name="Path 993" class="cls-1" d="M30.545,34.656a1.043,1.043,0,0,1-.466-.109L17.576,28.3A1.043,1.043,0,0,1,17,27.363V19.395a1.042,1.042,0,0,1,1.485-.943l12.061,5.675L42.6,18.452a1.043,1.043,0,0,1,1.486.943v7.968a1.043,1.043,0,0,1-.576.933l-12.5,6.252A1.043,1.043,0,0,1,30.545,34.656ZM19.084,26.719l11.461,5.731,11.461-5.731V21.037L30.989,26.222a1.042,1.042,0,0,1-.888,0L19.084,21.037Z" transform="translate(619.896 12189.923)"/>
    <path id="Path_994" data-name="Path 994" class="cls-1" d="M47.755,18.084H30.042a1.042,1.042,0,1,1,0-2.084H47.755a1.042,1.042,0,1,1,0,2.084Z" transform="translate(620.476 12189.771)"/>
    <path id="Path_995" data-name="Path 995" class="cls-1" d="M47.042,27.461A1.042,1.042,0,0,1,46,26.419V17.042a1.042,1.042,0,0,1,2.084,0v9.378A1.042,1.042,0,0,1,47.042,27.461Z" transform="translate(621.22 12189.791)"/>
    <path id="Path_996" data-name="Path 996" class="cls-1" d="M30.042,20.252A1.042,1.042,0,0,1,29,19.21V15.042a1.042,1.042,0,0,1,2.084,0V19.21A1.042,1.042,0,0,1,30.042,20.252Z" transform="translate(620.4 12189.682)"/>
    <path id="Path_997" data-name="Path 997" class="cls-1" d="M45.041,30.21a1.042,1.042,0,0,1-.866-1.62l2.084-3.126a1.042,1.042,0,1,1,1.734,1.157l-2.084,3.126A1.041,1.041,0,0,1,45.041,30.21Z" transform="translate(621.134 12190.215)"/>
    <path id="Path_998" data-name="Path 998" class="cls-1" d="M49.127,30.21a1.041,1.041,0,0,1-.868-.464L46.175,26.62a1.042,1.042,0,1,1,1.734-1.157l2.084,3.126a1.042,1.042,0,0,1-.866,1.62Z" transform="translate(621.231 12190.215)"/>
    <path id="Path_999" data-name="Path 999" class="cls-1" d="M30.042,29.21A1.042,1.042,0,0,1,29,28.168V25.042a1.042,1.042,0,0,1,2.084,0v3.126A1.042,1.042,0,0,1,30.042,29.21Z" transform="translate(620.4 12190.166)"/>
    <path id="Path_1000" data-name="Path 1000" class="cls-1" d="M61.835,39.594H1.048A1.045,1.045,0,0,1,0,38.552V4.169A4.186,4.186,0,0,1,4.193,0h54.5a4.186,4.186,0,0,1,4.193,4.169V38.552A1.045,1.045,0,0,1,61.835,39.594ZM2.1,37.51H60.787V4.169a2.093,2.093,0,0,0-2.1-2.085H4.193A2.093,2.093,0,0,0,2.1,4.169Z" transform="translate(619 12188.999)"/>
    <path id="exp5-2" data-name="exp5" class="cls-1" d="M58.69,46.419H4.193A4.186,4.186,0,0,1,0,42.251V37.042A1.045,1.045,0,0,1,1.048,36H61.835a1.045,1.045,0,0,1,1.048,1.042v5.209A4.186,4.186,0,0,1,58.69,46.419ZM2.1,38.084v4.167a2.093,2.093,0,0,0,2.1,2.085h54.5a2.093,2.093,0,0,0,2.1-2.085V38.084Z" transform="translate(619 12190.775)"/>
    <path id="Path_1002" data-name="Path 1002" class="cls-1" d="M33.294,42.084H27.042a1.042,1.042,0,1,1,0-2.084h6.252a1.042,1.042,0,0,1,0,2.084Z" transform="translate(620.274 12190.93)"/>
    <path id="Path_1003" data-name="Path 1003" class="cls-1" d="M57.5,39.426H5.049A1.046,1.046,0,0,1,4,38.384V5.042A1.046,1.046,0,0,1,5.049,4H57.5a1.046,1.046,0,0,1,1.049,1.042V38.384A1.046,1.046,0,0,1,57.5,39.426ZM6.1,37.342H56.45V6.084H6.1Z" transform="translate(619.168 12189.167)"/>
    <path id="Path_1004" data-name="Path 1004" class="cls-1" d="M44.549,58.252H17.16a3.126,3.126,0,1,1,0-6.252H44.549a3.126,3.126,0,1,1,0,6.252ZM17.16,54.084a1.042,1.042,0,1,0,0,2.084H44.549a1.042,1.042,0,1,0,0-2.084Z" transform="translate(619.587 12191.534)"/>
    <path id="Path_1005" data-name="Path 1005" class="cls-1" d="M41.965,54.419H19.042a1.042,1.042,0,1,1,0-2.084c3.457,0,5.21-2.454,5.21-7.294A1.042,1.042,0,0,1,25.294,44H35.713a1.042,1.042,0,0,1,1.042,1.042c0,4.84,1.753,7.294,5.21,7.294a1.042,1.042,0,1,1,0,2.084ZM24.117,52.336H36.89a9.97,9.97,0,0,1-2.19-6.252H26.307A9.977,9.977,0,0,1,24.117,52.336Z" transform="translate(619.938 12191.199)"/>
  </g>
</svg>
