<svg id="exp7" xmlns="http://www.w3.org/2000/svg" width="62.883" height="63.557" viewBox="0 0 62.883 63.557">
  <defs>
    <style>
      .cls-1 {
        fill: #363636;
      }
    </style>
  </defs>
  <path id="Path_1006" data-name="Path 1006" class="cls-1" d="M221.006,105.216v-1.4a.931.931,0,0,0-1.862,0v1.4a.931.931,0,1,0,1.862,0Z" transform="translate(-192.278 -90.115)"/>
  <path id="Path_1007" data-name="Path 1007" class="cls-1" d="M279.745,106.147a.931.931,0,0,0,.931-.931v-1.4a.931.931,0,1,0-1.862,0v1.4A.931.931,0,0,0,279.745,106.147Z" transform="translate(-244.541 -90.115)"/>
  <path id="Path_1008" data-name="Path 1008" class="cls-1" d="M238.542,136.724a2.546,2.546,0,0,0,2.543-2.543.931.931,0,0,0-1.862,0,.68.68,0,1,1-1.361,0,.931.931,0,0,0-1.862,0A2.546,2.546,0,0,0,238.542,136.724Z" transform="translate(-207.041 -116.709)"/>
  <path id="Path_1009" data-name="Path 1009" class="cls-1" d="M60.718,56.093A6.791,6.791,0,0,0,57.3,44.157V35.843A2.546,2.546,0,0,0,54.754,33.3H45.37v-.822a.931.931,0,1,0-1.862,0V33.3H42.166V28.1a.931.931,0,0,0-.93-.931V25.925A2.483,2.483,0,0,1,43.5,28.2a.931.931,0,0,0,1.857-.138,4.353,4.353,0,0,0-4.325-4.011H38.288v-1.4A8.475,8.475,0,0,0,42.463,17.3a3.505,3.505,0,0,0,2.021-5.7.925.925,0,0,0,.057-.318V6.706a5.2,5.2,0,0,0-5.27-5.192A5.214,5.214,0,0,0,35.594,0H24.817a.931.931,0,0,0-.931.931v6.93a4.328,4.328,0,0,0,1.1,2.889,3.507,3.507,0,0,0,.975,6.545,8.475,8.475,0,0,0,4.175,5.358v1.4H27.416A4.342,4.342,0,0,0,23.08,28.39V33.3H13.7a2.546,2.546,0,0,0-2.544,2.544v1.468a.931.931,0,1,0,1.862,0V35.843a.682.682,0,0,1,.682-.682H54.754a.682.682,0,0,1,.682.682v8.31a6.808,6.808,0,0,0-5.848,7.324H41.205c.015-.174.026-.4.026-.591a6.8,6.8,0,1,0-13.592,0c0,.2.012.434.026.591H18.7a6.592,6.592,0,0,0,.011-1.017,6.792,6.792,0,0,0-5.7-6.283V41.656a.931.931,0,1,0-1.862,0v2.481A6.791,6.791,0,0,0,7.575,56.1a6.826,6.826,0,0,0-4.863,6.528.931.931,0,0,0,.931.931h16.6a.931.931,0,0,0,.931-.931,6.826,6.826,0,0,0-4.877-6.532,6.824,6.824,0,0,0,1.975-2.754H28.1a6.823,6.823,0,0,0,1.98,2.758,6.826,6.826,0,0,0-4.863,6.528.931.931,0,0,0,.931.931h16.6a.931.931,0,0,0,.931-.931A6.826,6.826,0,0,0,38.8,56.093a6.825,6.825,0,0,0,1.975-2.754h9.25A6.823,6.823,0,0,0,52,56.1a6.826,6.826,0,0,0-4.863,6.528.931.931,0,0,0,.931.931h16.6a.931.931,0,0,0,.931-.931,6.826,6.826,0,0,0-4.877-6.533ZM38.172,25.915h1.2v1.251H37.632A4.045,4.045,0,0,0,38.172,25.915ZM42.678,6.706v3.64h-.232a8.51,8.51,0,0,0-1.621-3.177,10.4,10.4,0,0,0-.256-3.552l0-.011A3.335,3.335,0,0,1,42.678,6.706ZM25.748,1.862h9.846a3.375,3.375,0,0,1,3.252,2.487v0c.155.571.118.7.118,3.713a2.284,2.284,0,0,1-2.281,2.281h-8.45a2.489,2.489,0,0,1-2.484-2.484v-6Zm1.9,14.409a.931.931,0,0,0-.955-.777,1.645,1.645,0,1,1-.068-3.289.967.967,0,0,0,.57-.122,4.56,4.56,0,0,0,1.037.125h8.45a4.159,4.159,0,0,0,3.675-2.231,6.627,6.627,0,0,1,.42,1.454.963.963,0,0,0,1.076.777,1.644,1.644,0,1,1-.12,3.286.935.935,0,0,0-.955.777,6.634,6.634,0,0,1-6.564,5.55h0a6.637,6.637,0,0,1-6.565-5.55Zm6.564,7.412a8.7,8.7,0,0,0,2.213-.289v1.56a2.213,2.213,0,0,1-4.425,0v-1.56A8.686,8.686,0,0,0,34.213,23.682Zm-5.16,2.233h1.2a4.054,4.054,0,0,0,.54,1.251H29.052V25.915ZM24.942,28.39a2.477,2.477,0,0,1,2.249-2.463v1.239a.931.931,0,0,0-.93.931v5.2H24.942Zm3.181,4.91V29.028H40.3V33.3ZM7,50.886a4.936,4.936,0,0,1,5.055-4.931h.007a4.933,4.933,0,0,1,.164,9.855h-.585A4.94,4.94,0,0,1,7,50.886Zm7.357,6.787a4.961,4.961,0,0,1,4.865,4.022H4.662a4.961,4.961,0,0,1,4.865-4.022Zm20.081-11.72a4.934,4.934,0,0,1,.292,9.858h-.585a4.934,4.934,0,0,1,.292-9.858Zm2.423,11.72a4.961,4.961,0,0,1,4.865,4.022H27.166a4.961,4.961,0,0,1,4.865-4.022Zm24.432-6.787a4.94,4.94,0,0,1-4.642,4.925h-.585a4.94,4.94,0,0,1-4.595-4.255c0-.02-.005-.039-.007-.059a4.933,4.933,0,1,1,9.829-.611Zm-12.2,10.808a4.961,4.961,0,0,1,4.865-4.022H58.78a4.961,4.961,0,0,1,4.865,4.022Z" transform="translate(-2.712)"/>
  <path id="Path_1010" data-name="Path 1010" class="cls-1" d="M231.427,302.474a2.606,2.606,0,0,0,0-5.212h-2.233a2.606,2.606,0,0,0,0,5.212Zm-2.977-2.606a.745.745,0,0,1,.744-.744h2.233a.744.744,0,1,1,0,1.488h-2.233A.745.745,0,0,1,228.45,299.868Z" transform="translate(-198.798 -260.362)"/>
  <path id="Path_1011" data-name="Path 1011" class="cls-1" d="M115.884,302.474h2.233a2.606,2.606,0,0,0,0-5.212h-2.233a2.606,2.606,0,0,0,0,5.212Zm0-3.35h2.233a.744.744,0,1,1,0,1.488h-2.233a.744.744,0,1,1,0-1.488Z" transform="translate(-99.553 -260.362)"/>
  <path id="Path_1012" data-name="Path 1012" class="cls-1" d="M344.738,302.474a2.606,2.606,0,0,0,0-5.212H342.5a2.606,2.606,0,1,0,0,5.212Zm-2.977-2.606a.745.745,0,0,1,.744-.744h2.233a.744.744,0,0,1,0,1.488H342.5A.745.745,0,0,1,341.76,299.868Z" transform="translate(-298.043 -260.362)"/>
</svg>
