<svg id="exp8" xmlns="http://www.w3.org/2000/svg" xmlns:xlink="http://www.w3.org/1999/xlink" width="62.883" height="57.167" viewBox="0 0 62.883 57.167">
  <defs>
    <style>
      .cls-1 {
        fill: #363636;
      }

      .cls-2 {
        clip-path: url(#clip-path);
      }
    </style>
    <clipPath id="clip-path">
      <path id="Combined_Shape" data-name="Combined Shape" class="cls-1" d="M42.877,57.167H8.574A8.583,8.583,0,0,1,0,48.593V20.009a8.586,8.586,0,0,1,8.574-8.577h8.577V8.574A8.574,8.574,0,0,1,25.726,0H37.158a8.576,8.576,0,0,1,8.577,8.574v2.858h8.574a8.586,8.586,0,0,1,8.574,8.577V48.593a8.583,8.583,0,0,1-8.574,8.574Zm11.432-5.716a2.86,2.86,0,0,0,2.858-2.858V20.009a2.86,2.86,0,0,0-2.858-2.858H45.735v34.3Zm-14.291,0v-34.3H22.867v34.3ZM5.716,20.009V48.593a2.86,2.86,0,0,0,2.858,2.858h8.577v-34.3H8.574A2.86,2.86,0,0,0,5.716,20.009Zm34.3-8.577V8.574a2.861,2.861,0,0,0-2.861-2.858H25.726a2.858,2.858,0,0,0-2.858,2.858v2.858Z" transform="translate(0 0)"/>
    </clipPath>
  </defs>
  <path id="Combined_Shape-2" data-name="Combined Shape" class="cls-1" d="M42.877,57.167H8.574A8.583,8.583,0,0,1,0,48.593V20.009a8.586,8.586,0,0,1,8.574-8.577h8.577V8.574A8.574,8.574,0,0,1,25.726,0H37.158a8.576,8.576,0,0,1,8.577,8.574v2.858h8.574a8.586,8.586,0,0,1,8.574,8.577V48.593a8.583,8.583,0,0,1-8.574,8.574Zm11.432-5.716a2.86,2.86,0,0,0,2.858-2.858V20.009a2.86,2.86,0,0,0-2.858-2.858H45.735v34.3Zm-14.291,0v-34.3H22.867v34.3ZM5.716,20.009V48.593a2.86,2.86,0,0,0,2.858,2.858h8.577v-34.3H8.574A2.86,2.86,0,0,0,5.716,20.009Zm34.3-8.577V8.574a2.861,2.861,0,0,0-2.861-2.858H25.726a2.858,2.858,0,0,0-2.858,2.858v2.858Z" transform="translate(0 0)"/>
  <g id="Mask_Group_114" data-name="Mask Group 114" class="cls-2" transform="translate(0 0)">
    <g id="COLOR_black" data-name="COLOR/ black" transform="translate(-2.858 -5.717)">
      <rect id="Rectangle" class="cls-1" width="68.601" height="68.601"/>
    </g>
  </g>
</svg>
