<svg xmlns="http://www.w3.org/2000/svg" width="90.769" height="103.717" viewBox="0 0 90.769 103.717">
  <defs>
    <style>
      .cls-1 {
        fill: #38e269;
      }
    </style>
  </defs>
  <g id="fe1" transform="translate(-314.429 -286.633)">
    <g id="Group_583" data-name="Group 583" transform="translate(342.088 286.633)">
      <g id="Group_582" data-name="Group 582" transform="translate(0 0)">
        <path id="Path_918" data-name="Path 918" class="cls-1" d="M462.488,398.4l-.249-.493c-5.388-10.678-9.644-19.114-5.455-29.835a3.818,3.818,0,0,0,.552-1.379,3.748,3.748,0,0,0-.911-3.139,9.862,9.862,0,0,0-4.556-2.738c-4.773-1.617-11.118-1.152-14.755,1.08a7.062,7.062,0,0,0-3.648,4.535,5.247,5.247,0,0,0,1.1,4.262c2.864,9.1-.581,15.847-5.348,25.189l-.075.147c-.368.721-.748,1.465-1.128,2.218a4.431,4.431,0,0,0-.378,2.982c.805,3.276,3.411,5.938,7.538,7.7a26.843,26.843,0,0,0,10.342,1.975,23.141,23.141,0,0,0,11.288-2.631c3.288-1.763,5.442-4.209,6.064-6.887A4.424,4.424,0,0,0,462.488,398.4Zm-27.148-31.16c.065-1.34,1.049-2.638,2.77-3.655l.008,0a14.109,14.109,0,0,1,7.4-1.759c3.829,0,7.726,1.052,9.395,2.986a1.829,1.829,0,0,1,.5,1.456l-.011.071a1.9,1.9,0,0,1-.347.782c-.59.807-1.9,1.451-3.794,1.867l.059-4.8-.729-.2a21.142,21.142,0,0,0-5.269-.665,8.278,8.278,0,0,0-4.106,1.072,3.568,3.568,0,0,0-1.963,3v4.385a10.656,10.656,0,0,1-1.149-.586,7.188,7.188,0,0,1-1.822-1.475A3.522,3.522,0,0,1,435.34,367.237Zm14.006-1.549-.044,3.618a28.86,28.86,0,0,1-3.83.188h-.008c-2.3,0-3.94-.945-4.2-1.859-.2-.695.419-1.24.969-1.575a6.316,6.316,0,0,1,3.126-.789A21.076,21.076,0,0,1,449.346,365.689Zm-1.575,14.974a17.72,17.72,0,0,1-5.5-.144.98.98,0,0,0-.353,1.928,19.749,19.749,0,0,0,5.857.191v5.551a16.7,16.7,0,0,1-8.3-.966.98.98,0,0,0-.753,1.81,18.777,18.777,0,0,0,9.057,1.132v2.685a17.629,17.629,0,0,1-5.665-.175.981.981,0,0,0-1.025,1.486.965.965,0,0,0,.63.433,19.645,19.645,0,0,0,6.061.231v2.91a16.39,16.39,0,0,1-9.033-1.3.98.98,0,0,0-.884,1.749,18.2,18.2,0,0,0,9.917,1.524v9.152a23.659,23.659,0,0,1-13.141-2.388h0c-2.786-1.526-4.592-3.547-5.086-5.691a2.467,2.467,0,0,1,.219-1.657c.4-.8.808-1.592,1.2-2.357,4.192-8.212,7.822-15.323,6.177-23.886a17.78,17.78,0,0,0,10.634,1.914Zm13.185,20.274h0c-.492,2.121-2.3,4.11-5.08,5.6a20.838,20.838,0,0,1-6.144,2.055V372.484l-1.157.21a17.564,17.564,0,0,1-7.356-.252V370.38a8.23,8.23,0,0,0,4.235,1.074,29.346,29.346,0,0,0,5.333-.382,15,15,0,0,0,3.229-.894,25.188,25.188,0,0,0-.15,12.68c1.216,5.214,3.841,10.417,6.623,15.931l.248.491A2.46,2.46,0,0,1,460.955,400.937Z" transform="translate(-427.525 -341.945)"/>
        <g id="Group_581" data-name="Group 581" transform="translate(26.33)">
          <g id="Group_580" data-name="Group 580">
            <g id="Group_579" data-name="Group 579" transform="translate(0 10.637)">
              <path id="Path_919" data-name="Path 919" class="cls-1" d="M537.762,331.837a.866.866,0,1,1-.866.866.867.867,0,0,1,.866-.866m0-1.71a2.577,2.577,0,1,0,2.576,2.577,2.577,2.577,0,0,0-2.576-2.577Z" transform="translate(-535.185 -330.127)"/>
            </g>
            <circle id="Ellipse_65" data-name="Ellipse 65" class="cls-1" cx="4.396" cy="4.396" r="4.396" transform="translate(2.179 1.408) rotate(-9.217)"/>
          </g>
        </g>
      </g>
    </g>
    <g id="Group_584" data-name="Group 584" transform="translate(314.429 365.373)">
      <rect id="Rectangle_430" data-name="Rectangle 430" class="cls-1" width="2.789" height="18.591" transform="translate(87.98 0.051)"/>
      <path id="Path_920" data-name="Path 920" class="cls-1" d="M394.766,625.45h-4.943V619.8a6.335,6.335,0,0,0-6.335-6.335h-2.51a6.335,6.335,0,0,0-6.335,6.335V620.9a6.3,6.3,0,0,0,1.185,3.68l-.313.189a4.754,4.754,0,0,1-2.457.684l-10.9,0a4.751,4.751,0,0,1-4.751-4.751V620a4.751,4.751,0,0,1,4.751-4.751h.1a4.749,4.749,0,0,1,4.609,3.615h2.852a6.33,6.33,0,0,0-6.258-5.4h-2.51a6.335,6.335,0,0,0-6.335,6.335v1.093a9.578,9.578,0,0,0,1.422,4.551h-6.305V619.8a6.335,6.335,0,0,0-6.335-6.335h-2.51a6.335,6.335,0,0,0-6.335,6.335V620.9a6.3,6.3,0,0,0,1.185,3.68l-.313.189a4.752,4.752,0,0,1-2.456.684h-3.357V608.589h-2.789v23.2h-4.859a4.751,4.751,0,0,1-4.751-4.751v-5.4h-2.789v5.595a6.335,6.335,0,0,0,6.335,6.335h8.852v-6.335h3.411a6.337,6.337,0,0,0,3.276-.913l.705-.426a6.3,6.3,0,0,0,3.884,1.338h32.221a6.336,6.336,0,0,0,3.275-.913l.705-.426a6.3,6.3,0,0,0,3.884,1.338h16.577V608.64h-2.789Zm-47.815,0H342.1a4.751,4.751,0,0,1-4.751-4.751V620a4.751,4.751,0,0,1,4.751-4.751h.1A4.751,4.751,0,0,1,346.95,620Zm40.085,0h-4.854a4.751,4.751,0,0,1-4.751-4.751V620a4.751,4.751,0,0,1,4.751-4.751h.1A4.751,4.751,0,0,1,387.036,620Z" transform="translate(-314.429 -608.589)"/>
    </g>
  </g>
</svg>
