<svg xmlns="http://www.w3.org/2000/svg" width="90.613" height="92.568" viewBox="0 0 90.613 92.568">
  <defs>
    <style>
      .cls-1 {
        fill: #38e269;
        fill-rule: evenodd;
      }
    </style>
  </defs>
  <g id="fea2" transform="translate(9.947 39.487)">
    <g id="Group_640" data-name="Group 640" transform="translate(-9.947 -39.487)">
      <path id="Path_965" data-name="Path 965" class="cls-1" d="M18.74,25.948,14.564,12.732h3.395l2.474,8.659,2.279-8.659h3.376l2.195,8.659,2.52-8.659h3.45L30,25.948H26.655l-2.269-8.5-2.241,8.5ZM0,83.219H43.386v4.027H0Zm0-9.375H43.386v4.018H0ZM0,64.46H27.4v4.018H0ZM57.848,69.6l1.981-1.135-2.093-3.674a18.745,18.745,0,1,1,3.506-1.99l2.093,3.674,1.981-1.135,11.849,20.8a4.313,4.313,0,0,1-1.6,5.868h0A4.316,4.316,0,0,1,69.7,90.4ZM54.3,32.653A15.445,15.445,0,1,0,63.632,39.9,15.385,15.385,0,0,0,54.3,32.653ZM1.953,0V41.024H29.5a21.873,21.873,0,0,1,2.213-4.892H7.775a.925.925,0,0,1-.921-.93V5.822A.917.917,0,0,1,7.775,4.9H84.791a.917.917,0,0,1,.921.921V35.2a.925.925,0,0,1-.921.93H69.008a21.647,21.647,0,0,1,2.213,4.892H90.613V0ZM40.614,25.948,36.438,12.732h3.395l2.474,8.659,2.279-8.659h3.376l2.195,8.659,2.52-8.659h3.45l-4.25,13.216H48.529l-2.269-8.5-2.241,8.5Zm21.874,0L58.313,12.732h3.4l2.465,8.659,2.288-8.659h3.367l2.195,8.659,2.52-8.659H78L73.76,25.948H70.4l-2.269-8.5-2.241,8.5Z"/>
    </g>
  </g>
</svg>
