<svg xmlns="http://www.w3.org/2000/svg" width="90.729" height="81.881" viewBox="0 0 90.729 81.881">
  <defs>
    <style>
      .cls-1 {
        fill: #38e269;
      }
    </style>
  </defs>
  <g id="fea4" transform="translate(-7.505 -10.304)">
    <path id="Path_973" data-name="Path 973" class="cls-1" d="M50,65.44A15.6,15.6,0,0,0,65.61,49.83V28.8a15.61,15.61,0,1,0-31.22,0V49.82A15.62,15.62,0,0,0,50,65.44ZM38.34,28.8a11.66,11.66,0,1,1,23.32,0V49.82a11.66,11.66,0,0,1-23.32,0Z" transform="translate(2.864)"/>
    <path id="Path_974" data-name="Path 974" class="cls-1" d="M29.227,48.11A2.119,2.119,0,0,0,27,50.09a20.67,20.67,0,0,0,2.035,8.95,23,23,0,0,0,5.544,7.31,26.193,26.193,0,0,0,8.22,4.93A28.234,28.234,0,0,0,50.649,73V85.74H41.754a1.994,1.994,0,1,0,0,3.96H63.986a1.994,1.994,0,1,0,0-3.96H55.091V73a28.234,28.234,0,0,0,7.849-1.72,26.193,26.193,0,0,0,8.22-4.93A23,23,0,0,0,76.7,59.04a20.7,20.7,0,0,0,2.035-8.95,2.242,2.242,0,0,0-4.453,0c0,10.5-9.6,19.04-21.411,19.04S31.464,60.59,31.464,50.09A2.13,2.13,0,0,0,29.227,48.11Z" transform="translate(0 2.485)"/>
    <path id="Path_975" data-name="Path 975" class="cls-1" d="M16.25,10.89a29.96,29.96,0,0,0,0,42.31,1.98,1.98,0,0,0,2.8,0,1.986,1.986,0,0,0,0-2.8,26,26,0,0,1,0-36.72,1.976,1.976,0,1,0-2.8-2.79Z"/>
    <path id="Path_976" data-name="Path 976" class="cls-1" d="M21.23,15.88a22.853,22.853,0,0,0,0,32.34,1.98,1.98,0,0,0,2.8,0,1.986,1.986,0,0,0,0-2.8,18.927,18.927,0,0,1,0-26.74,1.98,1.98,0,0,0-2.8-2.8Z"/>
    <path id="Path_977" data-name="Path 977" class="cls-1" d="M29.02,20.86a1.986,1.986,0,0,0-2.8,0,15.813,15.813,0,0,0,0,22.36,1.98,1.98,0,0,0,2.8,0,1.986,1.986,0,0,0,0-2.8,11.878,11.878,0,0,1,0-16.78A1.962,1.962,0,0,0,29.02,20.86Z" transform="translate(1.048)"/>
    <path id="Path_978" data-name="Path 978" class="cls-1" d="M80.96,10.89a1.986,1.986,0,0,0,0,2.8,26,26,0,0,1,0,36.72,1.986,1.986,0,0,0,0,2.8,1.98,1.98,0,0,0,2.8,0,29.961,29.961,0,0,0,0-42.31A1.977,1.977,0,0,0,80.96,10.89Z" transform="translate(5.729)"/>
    <path id="Path_979" data-name="Path 979" class="cls-1" d="M85.45,32.04a22.76,22.76,0,0,0-6.69-16.17,1.98,1.98,0,0,0-2.8,2.8,18.927,18.927,0,0,1,0,26.74,1.986,1.986,0,0,0,0,2.8,1.98,1.98,0,0,0,2.8,0,22.76,22.76,0,0,0,6.69-16.17Z" transform="translate(5.729)"/>
    <path id="Path_980" data-name="Path 980" class="cls-1" d="M70.98,43.23a1.98,1.98,0,0,0,2.8,0,15.813,15.813,0,0,0,0-22.36,1.98,1.98,0,0,0-2.8,2.8,11.878,11.878,0,0,1,0,16.78A1.961,1.961,0,0,0,70.98,43.23Z" transform="translate(4.68)"/>
  </g>
</svg>
