<svg xmlns="http://www.w3.org/2000/svg" width="90.032" height="100.21" viewBox="0 0 90.032 100.21">
  <defs>
    <style>
      .cls-1 {
        fill: #38e269;
      }
    </style>
  </defs>
  <g id="fea5" transform="translate(-26)">
    <g id="Group_642" data-name="Group 642" transform="translate(90.588 77.506)">
      <g id="Group_641" data-name="Group 641" transform="translate(0)">
        <path id="Path_981" data-name="Path 981" class="cls-1" d="M357.957,396a1.957,1.957,0,1,0,1.957,1.957A1.958,1.958,0,0,0,357.957,396Z" transform="translate(-356 -396)"/>
      </g>
    </g>
    <g id="Group_644" data-name="Group 644" transform="translate(26)">
      <g id="Group_643" data-name="Group 643" transform="translate(0)">
        <path id="Path_982" data-name="Path 982" class="cls-1" d="M97.365,71.177l-9.3-3.1L84.722,61.4a21.437,21.437,0,0,0,5.8-11.34l.416-2.5H94.5a5.878,5.878,0,0,0,5.872-5.872V29.358a29.358,29.358,0,1,0-58.717,0V41.689a5.881,5.881,0,0,0,3.914,5.535v2.294a5.878,5.878,0,0,0,5.872,5.872h1.719a21.234,21.234,0,0,0,3.283,5.084c.277.319.566.627.862.928L53.97,68.077l-9.3,3.1C33.851,74.784,26,86.171,26,98.253a1.957,1.957,0,0,0,1.957,1.957h86.118a1.957,1.957,0,0,0,1.957-1.957C116.032,86.171,108.182,74.784,97.365,71.177Zm-.9-29.488A1.959,1.959,0,0,1,94.5,43.646H91.516c.5-3.854.829-7.955.962-11.994,0-.114.007-.225.011-.337H96.46ZM47.529,43.646a1.959,1.959,0,0,1-1.957-1.957V31.316h3.973q.01.306.021.616c0,.007,0,.014,0,.021v0c.137,3.929.464,7.923.95,11.692H47.529Zm3.914,7.829a1.959,1.959,0,0,1-1.957-1.957V47.561h1.6l.416,2.5c.079.475.177.947.29,1.417ZM49.49,27.4H45.647a25.445,25.445,0,0,1,50.739,0H92.542A19.823,19.823,0,0,0,72.768,7.829h-3.5A19.824,19.824,0,0,0,49.49,27.4ZM69.264,11.743h3.5A15.915,15.915,0,0,1,88.631,27.677c0,.616,0,1.152-.015,1.64,0,.006,0,.013,0,.019l-2.448-.35a31.45,31.45,0,0,1-17.682-8.841,1.958,1.958,0,0,0-1.384-.573,17.707,17.707,0,0,0-13.614,6.441A15.91,15.91,0,0,1,69.264,11.743ZM55.855,51.475c-.98-3.259-2.1-12.85-2.349-19l2.634-3.512a13.777,13.777,0,0,1,10.187-5.458,35.4,35.4,0,0,0,19.286,9.353l2.881.412c-.193,4.088-.586,8.19-1.15,11.962v0c-.179,1.213-.321,1.993-.682,4.174-1.037,6.217-5.676,11.839-11.8,13.37a15.4,15.4,0,0,1-17.287-7.394h3.99A5.881,5.881,0,0,0,67.1,59.3h3.914a5.872,5.872,0,0,0,0-11.743H67.1a5.874,5.874,0,0,0-5.538,3.914ZM66.937,66.744a19.631,19.631,0,0,0,7.28.164l-3.458,3.657Zm1.13,6.667L61.86,79.976a74.572,74.572,0,0,1-4.382-10.161l2.331-4.662Zm13.824-8.922,2.663,5.325a74.549,74.549,0,0,1-4.383,10.164l-6.644-6.644ZM65.144,53.432A1.958,1.958,0,0,1,67.1,51.475h3.914a1.957,1.957,0,0,1,0,3.914H67.1A1.959,1.959,0,0,1,65.144,53.432ZM29.993,96.3c.776-9.7,7.228-18.509,15.913-21.4l8.239-2.746a78.459,78.459,0,0,0,5.571,12.084l.011.02h0a78.481,78.481,0,0,0,5.357,8.181L67.491,96.3Zm41.023-1.745-2.654-4.261q-.045-.072-.1-.139a74.624,74.624,0,0,1-4.41-6.588l6.98-7.381,7.355,7.355a74.538,74.538,0,0,1-4.425,6.615C73.67,90.278,73.806,90.076,71.016,94.551ZM74.541,96.3l2.408-3.865a78.451,78.451,0,0,0,5.395-8.246l.029-.052,0-.006a78.394,78.394,0,0,0,5.512-11.981l8.239,2.746c8.684,2.9,15.137,11.709,15.913,21.4h-37.5Z" transform="translate(-26)"/>
      </g>
    </g>
    <g id="Group_646" data-name="Group 646" transform="translate(97.466 81.242)">
      <g id="Group_645" data-name="Group 645" transform="translate(0)">
        <path id="Path_983" data-name="Path 983" class="cls-1" d="M399.831,422.221a19.568,19.568,0,0,0-5.541-6.726,1.957,1.957,0,1,0-2.387,3.1,15.631,15.631,0,0,1,4.425,5.373,1.957,1.957,0,0,0,3.5-1.749Z" transform="translate(-391.139 -415.088)"/>
      </g>
    </g>
  </g>
</svg>
