<svg id="Group_639" data-name="Group 639" xmlns="http://www.w3.org/2000/svg" width="90.497" height="91.17" viewBox="0 0 90.497 91.17">
  <defs>
    <style>
      .cls-1 {
        fill: #363636;
      }
    </style>
  </defs>
  <path id="Path_954" data-name="Path 954" class="cls-1" d="M19.641,38.647,4.414,53.874l4.21,4.21L23.851,42.857a27.822,27.822,0,0,1-4.21-4.21Z" transform="translate(-4.414 17.76)"/>
  <path id="Path_955" data-name="Path 955" class="cls-1" d="M60.841,37.421A24.421,24.421,0,1,0,36.421,61.841,24.421,24.421,0,0,0,60.841,37.421Zm-45.585,0A21.165,21.165,0,1,1,36.421,58.585,21.165,21.165,0,0,1,15.256,37.421Z" transform="translate(0.35 1.652)"/>
  <path id="Path_956" data-name="Path 956" class="cls-1" d="M43.944,46.305H25.256V43.049H46.072a17.866,17.866,0,0,0,1.283-3.256h-22.1V36.537h22.71c.049-.537.083-1.078.083-1.628s-.034-1.091-.083-1.628H25.256V30.025h22.1a17.867,17.867,0,0,0-1.283-3.256H25.256V23.513H43.944A17.84,17.84,0,0,0,22,18.977V50.841a17.84,17.84,0,0,0,21.944-4.536Z" transform="translate(6.631 4.164)"/>
  <path id="Path_957" data-name="Path 957" class="cls-1" d="M54.28,46H38V62.28H54.28ZM44.512,59.7l-4.407-4.407,2.3-2.3,2.105,2.105,5.361-5.361,2.3,2.3Z" transform="translate(16.68 22.378)"/>
  <path id="Path_958" data-name="Path 958" class="cls-1" d="M22,8.884v7.738A27.633,27.633,0,0,1,55.333,31.677H65.957v3.256H56.591a27.378,27.378,0,0,1,.768,3.256h6.97v3.256h-6.6c.033.542.083,1.078.083,1.628s-.05,1.086-.083,1.628h8.223v3.256h-8.6a27.378,27.378,0,0,1-.768,3.256H62.7v3.256H55.333A27.633,27.633,0,0,1,22,69.524V95.171H70.841V8.884A8.1,8.1,0,0,1,72.469,4H26.884A4.884,4.884,0,0,0,22,8.884Zm13.024,83.03H31.768V88.658h3.256Zm6.512,0H38.28V88.658h3.256Zm26.049,0H44.793V69.122H67.585Zm0-71.634h-11.4V17.024h11.4ZM43.165,10.512H67.585v3.256H43.165Z" transform="translate(6.631 -4)"/>
  <path id="Path_959" data-name="Path 959" class="cls-1" d="M16,33.325a17.886,17.886,0,0,0,6.513,13.8V19.521A17.886,17.886,0,0,0,16,33.325Z" transform="translate(2.863 5.748)"/>
  <path id="Path_960" data-name="Path 960" class="cls-1" d="M58.884,4A4.884,4.884,0,0,0,54,8.884V88.658h9.768V8.884A4.884,4.884,0,0,0,58.884,4Z" transform="translate(26.728 -4)"/>
</svg>
