<svg xmlns="http://www.w3.org/2000/svg" width="89.921" height="86.833" viewBox="0 0 89.921 86.833">
  <defs>
    <style>
      .cls-1 {
        fill: #363636;
      }
    </style>
  </defs>
  <g id="noun_Search_1212703" transform="translate(157 396.221)">
    <g id="Layer_3" data-name="Layer 3" transform="translate(-157 -396.221)">
      <path id="Path_950" data-name="Path 950" class="cls-1" d="M86.857,78.811a1.771,1.771,0,0,1,2.5,0l10.875,10.875,1.677-1.665L91.048,77.147a4.227,4.227,0,0,0-5.9,0l-1.57,1.606L77.517,72.7a36.981,36.981,0,1,0-1.582,1.748l5.975,5.975L80.728,81.6a4.121,4.121,0,0,0,0,5.9L91.662,98.235l1.677-1.665L82.452,85.719a1.783,1.783,0,0,1,0-2.5Zm-37.524,4.57A34.667,34.667,0,1,1,83.964,48.714,34.667,34.667,0,0,1,49.332,83.381Z" transform="translate(-12.344 -11.779)"/>
      <path id="Path_951" data-name="Path 951" class="cls-1" d="M28.659,23.108a25.457,25.457,0,0,0-10.5,28.586,1.231,1.231,0,1,0,2.361-.7A23.025,23.025,0,0,1,29.97,25.151a1.212,1.212,0,1,0-1.322-2.031Z" transform="translate(-11.484 -9.765)"/>
      <path id="Path_952" data-name="Path 952" class="cls-1" d="M69.7,44.4a22.682,22.682,0,0,1-2.55,10.19A1.209,1.209,0,1,0,69.3,55.7a25.091,25.091,0,0,0,2.822-11.264,1.21,1.21,0,0,0-2.421,0Z" transform="translate(-2.462 -6.095)"/>
      <path id="Path_953" data-name="Path 953" class="cls-1" d="M68.635,45.2A21.56,21.56,0,0,0,64.1,33.053h0l-.189-.236-.39-.46c-.342-.4-.7-.8-1.074-1.181l-.378-.366q-.508-.5-1.051-.956l-.354-.307c-.413-.342-.85-.661-1.287-.968l-.413-.283q-.7-.46-1.441-.874l-.413-.224c-.52-.272-1.051-.531-1.594-.767l-.26-.106q-.791-.331-1.606-.59l-.283-.094c-.59-.177-1.181-.331-1.795-.46l-.39-.118c-.614-.118-1.181-.213-1.854-.283h-.319c-.661-.059-1.334-.106-2.019-.106a12.786,12.786,0,0,0-2.019.106h-.319c-.626.071-1.252.165-1.854.283l-.378.083c-.6.13-1.181.283-1.795.46l-.283.094q-.815.26-1.606.59l-.26.106c-.543.236-1.074.5-1.594.767l-.413.224q-.732.413-1.441.874l-.413.283c-.437.307-.874.626-1.287.968l-.354.307q-.543.46-1.063.956l-.378.366c-.378.378-.732.779-1.074,1.181l-.39.46-.189.236h0a21.561,21.561,0,0,0-4.534,12.15H25.29v1.181h0v1.181h.059a21.561,21.561,0,0,0,4.534,12.15h0l.189.236.39.46c.342.4.7.8,1.074,1.181l.378.378q.508.5,1.051.956l.366.307c.413.342.85.661,1.287.968l.413.283q.7.46,1.441.874l.413.224c.52.272,1.051.531,1.594.767l.26.106q.791.331,1.606.59l.283.094c.59.177,1.181.331,1.795.46l.378.083c.614.118,1.181.213,1.854.283h.319c.661.059,1.334.106,2.019.106a12.788,12.788,0,0,0,2.019-.106h.319c.626-.071,1.252-.165,1.854-.283l.378-.083c.6-.13,1.181-.283,1.795-.46l.283-.094q.815-.26,1.606-.59l.26-.106c.543-.236,1.074-.5,1.594-.767l.413-.224q.732-.413,1.441-.874l.413-.283c.437-.307.874-.626,1.287-.968l.366-.307q.543-.46,1.051-.956l.39-.378c.378-.378.732-.779,1.074-1.181l.39-.46.189-.236h0a21.56,21.56,0,0,0,4.522-12.115h0Zm-2.362,0h-3.66a27.394,27.394,0,0,0-2.751-11.17l1.688-.331A19.223,19.223,0,0,1,66.274,45.2Zm-6.966,16.07-.142.106c-.425.354-.874.685-1.322.992l-.165.106-.4.248A19.884,19.884,0,0,0,58.6,60.919l.933.153Zm-23.178,1.11c-.46-.307-.9-.649-1.334-.992l-.142-.106-.26-.213.933-.153a19.884,19.884,0,0,0,1.429,1.807l-.4-.248ZM34.665,31.495l.142-.106a15.617,15.617,0,0,1,1.334-.992l.165-.106.4-.248a19.9,19.9,0,0,0-1.322,1.807l-.992-.153Zm23.178-1.11c.46.307.9.649,1.322.992l.142.106.224.2-.933.153a19.9,19.9,0,0,0-1.322-1.807l.4.248ZM46.992,57.719H44.631A68.909,68.909,0,0,1,43.8,47.541h6.317a68.91,68.91,0,0,1-.827,10.178Zm1.877,2.362a16.46,16.46,0,0,1-1.877,5.313,16.46,16.46,0,0,1-1.877-5.313H48.87ZM43.84,45.2a68.921,68.921,0,0,1,.827-10.178h4.723A68.92,68.92,0,0,1,50.216,45.2Zm3.153-12.516H45.115a16.46,16.46,0,0,1,1.877-5.313,16.46,16.46,0,0,1,1.877,5.313ZM56,32.144c-1.511.165-3.094.3-4.723.378a25.244,25.244,0,0,0-1.594-5.1A12.6,12.6,0,0,1,56,32.144ZM44.288,27.421a25.244,25.244,0,0,0-1.629,5.16c-1.641-.083-3.235-.213-4.723-.378a12.6,12.6,0,0,1,6.352-4.782Zm-2,7.474a72.758,72.758,0,0,0-.827,10.273H33.721a24.8,24.8,0,0,1,2.834-10.792c1.783.272,3.743.449,5.738.555Zm-.815,12.669A72.758,72.758,0,0,0,42.3,57.837c-2.043.106-3.956.283-5.738.52a24.8,24.8,0,0,1-2.834-10.792Zm1.181,12.622a25.245,25.245,0,0,0,1.57,5.136A12.6,12.6,0,0,1,37.912,60.6C39.483,60.4,41.077,60.27,42.659,60.187Zm6.966,5.136a25.256,25.256,0,0,0,1.57-5.136c1.641.083,3.235.213,4.723.378a12.6,12.6,0,0,1-6.234,4.758Zm2-7.474a72.759,72.759,0,0,0,.827-10.273h7.8a24.8,24.8,0,0,1-2.834,10.792c-1.771-.248-3.708-.425-5.738-.531Zm.827-12.634a72.758,72.758,0,0,0-.827-10.273c2.043-.106,3.956-.283,5.738-.52a24.8,24.8,0,0,1,2.834,10.792Zm-20.073-11.5,1.688.331a27.393,27.393,0,0,0-2.751,11.17h-3.6A19.223,19.223,0,0,1,32.434,33.7ZM27.652,47.577H31.3a27.393,27.393,0,0,0,2.751,11.17l-1.688.331a19.223,19.223,0,0,1-4.652-11.512Zm33.9,11.489-1.688-.331a27.394,27.394,0,0,0,2.751-11.17h3.66A19.223,19.223,0,0,1,61.551,59.065Z" transform="translate(-10.004 -9.449)"/>
      <circle id="Ellipse_67" data-name="Ellipse 67" class="cls-1" cx="1.181" cy="1.181" r="1.181" transform="translate(78.976 84.472)"/>
      <circle id="Ellipse_68" data-name="Ellipse 68" class="cls-1" cx="1.181" cy="1.181" r="1.181" transform="translate(87.56 75.912)"/>
    </g>
  </g>
</svg>
