<svg xmlns="http://www.w3.org/2000/svg" width="129.312" height="129.312" viewBox="0 0 129.312 129.312">
  <defs>
    <style>
      .cls-1 {
        fill: #363636;
      }
    </style>
  </defs>
  <g id="noun_explore_1234050" transform="translate(-10.917 64.616) rotate(-45)">
    <path id="Path_921" data-name="Path 921" class="cls-1" d="M13.525,83.071a2.154,2.154,0,0,0,1.529-.634L20,77.491a2.162,2.162,0,0,0-3.058-3.058L12,79.379a2.163,2.163,0,0,0,1.529,3.692ZM23.3,84.325a2.162,2.162,0,0,0-3.058,0L8.7,95.864a2.163,2.163,0,0,0,3.058,3.06L23.3,87.385A2.163,2.163,0,0,0,23.3,84.325ZM77.614,18.191a9.244,9.244,0,1,0,6.538,2.7A9.2,9.2,0,0,0,77.614,18.191Zm3.481,12.725a4.919,4.919,0,1,1,0-6.963A4.89,4.89,0,0,1,81.094,30.916ZM98.68,10.593,98.612,9.54a2.163,2.163,0,0,0-2.017-2.02l-1.049-.069c-.188-.013-1.209-.076-2.844-.076-7.761,0-27.181,1.369-39.852,14.044-1.555,1.555-3.036,3.162-4.418,4.8a13.341,13.341,0,0,0-5.789-1.279,13.691,13.691,0,0,0-9.678,3.8L19.781,41.924a4.1,4.1,0,0,0-.8,4.247c.043.174.09.353.124.533a5.49,5.49,0,0,0,1.518,2.878,5.6,5.6,0,0,0,1.684,1.148L34.052,55.88,22.47,67.461a2.16,2.16,0,0,0-.631,1.436c-.01.211-.164,5.221,4.844,10.231,4.619,4.619,9.24,4.846,10.1,4.846.072,0,.119,0,.135,0a2.16,2.16,0,0,0,1.435-.631L50.136,71.556,55.6,84.007a5.47,5.47,0,0,0,4.029,3.217,5.538,5.538,0,0,0,1.016.094,5.478,5.478,0,0,0,3.892-1.61L77.856,72.383A12.484,12.484,0,0,0,80,57.622c1.624-1.382,3.2-2.836,4.7-4.341C100.323,37.675,98.754,11.684,98.68,10.593ZM77.469,54.068C76.027,55.077,66.876,61.4,59.858,64.34a33.83,33.83,0,0,1-8.7,1.9c-.008,0-.014,0-.022,0-3.493-.04-6.259-1.055-8.219-3.016a11.2,11.2,0,0,1-3-7.817,35.079,35.079,0,0,1,1.87-9.055c3.123-7.582,10.054-17.422,10.192-17.618,1.236-1.446,2.551-2.87,3.932-4.251C67.439,12.946,85.481,11.7,92.7,11.7c.7,0,1.276.013,1.7.027.162,4.546.167,25.58-12.755,38.5C80.316,51.56,78.9,52.834,77.469,54.068ZM27.451,90.3l-5.567,5.564a2.163,2.163,0,0,0,3.058,3.06l5.567-5.564a2.163,2.163,0,0,0-3.058-3.06Z"/>
  </g>
</svg>
