<svg xmlns="http://www.w3.org/2000/svg" width="101.843" height="77.564" viewBox="0 0 101.843 77.564">
  <defs>
    <style>
      .cls-1 {
        fill: #363636;
        stroke: #363636;
        stroke-width: 0.5px;
      }
    </style>
  </defs>
  <g id="noun_training_2363499" transform="translate(-3.893 -85.066)">
    <g id="Group_637" data-name="Group 637" transform="translate(4.143 85.316)">
      <g id="Group_636" data-name="Group 636" transform="translate(0 0)">
        <g id="Group_635" data-name="Group 635">
          <g id="Group_607" data-name="Group 607" transform="translate(0 58.922)">
            <path id="Path_922" data-name="Path 922" class="cls-1" d="M95.473,357.537H70.031a.677.677,0,1,1,0-1.355H94.8v-7.835a.677.677,0,0,1,.43-.63l.108-.042H24.359v4.254a4.259,4.259,0,0,0,4.254,4.254H58.743a.677.677,0,1,1,0,1.355H28.612A5.615,5.615,0,0,1,23,351.928V347a.677.677,0,0,1,.677-.677H98.91a.677.677,0,0,1,.247,1.308l-3.007,1.181v8.051A.677.677,0,0,1,95.473,357.537Zm15.844-8.2a.677.677,0,0,1-.455-.175l-.122-.11a.677.677,0,0,1,.455-1.179h.249a.677.677,0,0,1,.443,1.189l-.127.11A.677.677,0,0,1,111.317,349.338Z" transform="translate(-23.004 -346.32)"/>
          </g>
          <g id="Group_608" data-name="Group 608" transform="translate(6.733 12.14)">
            <path id="Path_923" data-name="Path 923" class="cls-1" d="M118.936,187.228H65.267a.678.678,0,0,1,0-1.354h53.546l7.129-2.931a.626.626,0,0,1,.686.143l.166.168v-3a8.743,8.743,0,0,1-3.949-7.372,8.5,8.5,0,0,1,8.341-8.63,7.7,7.7,0,0,1,3.455.82V150.123a.648.648,0,1,1,1.294,0v16.112a.683.683,0,0,1-.342.6.624.624,0,0,1-.665-.034,6.512,6.512,0,0,0-3.743-1.192,7.174,7.174,0,0,0-7.046,7.276,7.356,7.356,0,0,0,3.613,6.389.682.682,0,0,1,.335.593v4.983a.679.679,0,0,1-.394.624.626.626,0,0,1-.7-.136l-.964-.973-6.857,2.819A.618.618,0,0,1,118.936,187.228Zm-64.456,0h-1a.663.663,0,0,1-.647-.677V139.769a.663.663,0,0,1,.647-.677H69.167a.663.663,0,0,1,.647.677v5.656a3.226,3.226,0,0,0,3.147,3.292h.946a.663.663,0,0,1,.647.677v3.355l6.056-3.931a.628.628,0,0,1,.341-.1h10.4a3.111,3.111,0,0,0,2.642-1.508l-.746-.485a.7.7,0,0,1-.208-.933.63.63,0,0,1,.891-.218l6.056,3.931V146.15a.663.663,0,0,1,.647-.677h.947a3.226,3.226,0,0,0,3.147-3.292v-2.411a.663.663,0,0,1,.647-.677H134.4a.678.678,0,0,1,0,1.355H106.021v1.734a4.552,4.552,0,0,1-4.441,4.647h-.3v3.895a.683.683,0,0,1-.332.592.624.624,0,0,1-.656-.016l-5.2-3.374a4.391,4.391,0,0,1-3.742,2.149H81.136l-6.888,4.47a.623.623,0,0,1-.656.016.683.683,0,0,1-.332-.592v-3.895h-.3a4.552,4.552,0,0,1-4.441-4.647v-4.979H54.124v45.427h.356a.678.678,0,0,1,0,1.354Z" transform="translate(-52.83 -139.092)"/>
          </g>
          <g id="Group_609" data-name="Group 609" transform="translate(10.9 16.55)">
            <path id="Path_924" data-name="Path 924" class="cls-1" d="M133.106,202.353H71.931a.661.661,0,0,1-.644-.677V183.015a.645.645,0,1,1,1.288,0V201h60.409l7.094-2.932a.62.62,0,0,1,.683.143l.165.168v-3A8.754,8.754,0,0,1,137,188.006a9.087,9.087,0,0,1,.513-3.016l.052-.144a.687.687,0,0,1,.03-.071l.034-.091c0-.013.01-.025.015-.038.024-.061.05-.125.079-.189l.024-.055.015-.039.056-.127.014-.031.043-.087c.007-.018.015-.036.023-.053l.066-.133.011-.022.066-.122c.007-.013.014-.025.022-.037l.047-.091c.01-.021.021-.041.033-.06l.13-.221c.01-.017.02-.034.031-.05s.038-.057.056-.086c.028-.044.056-.088.085-.129l.02-.033.045-.068a.649.649,0,0,1,.052-.082l.064-.086c.011-.016.022-.033.03-.043l.078-.1c.038-.055.078-.106.117-.156.019-.023.037-.047.055-.071s.025-.033.039-.048l.184-.222.026-.029.091-.1c.09-.1.179-.194.271-.288a.622.622,0,0,1,.911.018.7.7,0,0,1-.017.958c-.078.079-.153.159-.228.243l-.1.109,0,0-.159.192c-.026.035-.052.069-.079.1s-.049.06-.071.094a.69.69,0,0,1-.045.06l-.049.065-.022.033-.04.054-.017.028-.047.071a.706.706,0,0,1-.05.08c-.023.032-.045.067-.067.1s-.045.071-.068.106l-.053.095-.014.023-.119.212c-.01.019-.02.037-.031.054l-.084.16c-.007.018-.014.035-.023.052l-.087.183a.71.71,0,0,1-.035.087l-.028.061-.024.06c-.014.033-.027.066-.04.1v0l-.013.033-.042.111c-.006.017-.014.034-.021.051l-.03.083a7.665,7.665,0,0,0-.432,2.542,7.362,7.362,0,0,0,3.6,6.389.683.683,0,0,1,.334.593v4.984a.68.68,0,0,1-.392.624.621.621,0,0,1-.7-.136l-.959-.973-6.822,2.82A.64.64,0,0,1,133.106,202.353Zm12.312-26.6a.661.661,0,0,1-.644-.677v-15.1H119.441a4.389,4.389,0,0,1-3.606,1.97h-.3v3.895a.684.684,0,0,1-.331.592.618.618,0,0,1-.653-.016l-5.173-3.374a4.365,4.365,0,0,1-3.724,2.149H95.491l-6.853,4.47a.616.616,0,0,1-.653.016.684.684,0,0,1-.331-.592V165.2h-.3a4.542,4.542,0,0,1-4.419-4.647v-.569H72.575v11.746a.645.645,0,1,1-1.288,0V159.3a.661.661,0,0,1,.644-.677h11.65a.661.661,0,0,1,.644.677v1.246a3.218,3.218,0,0,0,3.131,3.292H88.3a.661.661,0,0,1,.644.677v3.355l6.026-3.931a.622.622,0,0,1,.34-.1h10.349a3.092,3.092,0,0,0,2.629-1.508l-.742-.485a.7.7,0,0,1-.207-.933.626.626,0,0,1,.887-.218h0l0,0,6.021,3.927v-3.355a.661.661,0,0,1,.644-.677h.942a3.135,3.135,0,0,0,2.7-1.638.638.638,0,0,1,.555-.333h26.326a.661.661,0,0,1,.644.677v15.775A.662.662,0,0,1,145.417,175.757Z" transform="translate(-71.287 -158.627)"/>
          </g>
          <g id="Group_610" data-name="Group 610" transform="translate(45.468 61.622)">
            <path id="Path_925" data-name="Path 925" class="cls-1" d="M235.448,364.1a2.911,2.911,0,1,1,2.913-2.914A2.915,2.915,0,0,1,235.448,364.1Zm0-4.468a1.557,1.557,0,1,0,1.559,1.554A1.556,1.556,0,0,0,235.448,359.635Z" transform="translate(-232.539 -358.281)"/>
          </g>
          <g id="Group_611" data-name="Group 611" transform="translate(21.991 3.245)">
            <path id="Path_926" data-name="Path 926" class="cls-1" d="M131.188,124.139a.677.677,0,0,1-.677-.677v-3.895H130.2a4.652,4.652,0,0,1-4.647-4.647V104.338a4.652,4.652,0,0,1,4.647-4.646H137a.677.677,0,0,1,.665.807,3.066,3.066,0,0,0-.057.594v10.581a3.3,3.3,0,0,0,3.292,3.292h10.883a.677.677,0,0,1,.357.1l1.315.817a.678.678,0,0,1,.266.84,4.644,4.644,0,0,1-4.28,2.841H138.753l-7.207,4.47A.677.677,0,0,1,131.188,124.139Zm-.99-23.092a3.3,3.3,0,0,0-3.293,3.292V114.92a3.3,3.3,0,0,0,3.293,3.292h.99a.677.677,0,0,1,.677.677v3.355l6.337-3.931a.679.679,0,0,1,.357-.1h10.883a3.288,3.288,0,0,0,2.765-1.508l-.616-.383H140.9a4.652,4.652,0,0,1-4.646-4.647V101.093c0-.016,0-.031,0-.047Z" transform="translate(-125.551 -99.692)"/>
          </g>
          <g id="Group_612" data-name="Group 612" transform="translate(32.151)">
            <path id="Path_927" data-name="Path 927" class="cls-1" d="M195.863,109.763a.676.676,0,0,1-.357-.1l-7.207-4.47h-10.69a4.652,4.652,0,0,1-4.646-4.647V89.963a4.652,4.652,0,0,1,4.646-4.647h19.245a4.652,4.652,0,0,1,4.647,4.647v10.581a4.652,4.652,0,0,1-4.647,4.647h-.313v3.895a.677.677,0,0,1-.677.677ZM177.609,86.671a3.3,3.3,0,0,0-3.292,3.292v10.581a3.3,3.3,0,0,0,3.292,3.292h10.883a.677.677,0,0,1,.357.1l6.336,3.931v-3.355a.677.677,0,0,1,.677-.677h.991a3.3,3.3,0,0,0,3.293-3.292V89.963a3.3,3.3,0,0,0-3.293-3.292Z" transform="translate(-172.963 -85.316)"/>
          </g>
          <g id="Group_613" data-name="Group 613" transform="translate(39.036 5.262)">
            <path id="Path_928" data-name="Path 928" class="cls-1" d="M217.64,109.978H204.289a.677.677,0,0,1,0-1.354H217.64a.677.677,0,1,1,0,1.354Z" transform="translate(-203.612 -108.624)"/>
          </g>
          <g id="Group_614" data-name="Group 614" transform="translate(39.036 10.674)">
            <path id="Path_929" data-name="Path 929" class="cls-1" d="M217.64,133.952H204.289a.677.677,0,0,1,0-1.355H217.64a.677.677,0,1,1,0,1.355Z" transform="translate(-203.612 -132.598)"/>
          </g>
          <g id="Group_615" data-name="Group 615" transform="translate(17.041 33.9)">
            <path id="Path_930" data-name="Path 930" class="cls-1" d="M132.974,236.835H103.3a.677.677,0,1,1,0-1.354h29.67a.677.677,0,0,1,0,1.354Z" transform="translate(-102.627 -235.481)"/>
          </g>
          <g id="Group_616" data-name="Group 616" transform="translate(31.389 37.215)">
            <path id="Path_931" data-name="Path 931" class="cls-1" d="M183.852,251.519H169.017a.677.677,0,0,1,0-1.355h14.835a.677.677,0,0,1,0,1.355Z" transform="translate(-168.34 -250.164)"/>
          </g>
          <g id="Group_617" data-name="Group 617" transform="translate(17.153 40.523)">
            <path id="Path_932" data-name="Path 932" class="cls-1" d="M122.8,266.174H103.3a.677.677,0,0,1,0-1.354H122.8a.677.677,0,1,1,0,1.354Z" transform="translate(-102.627 -264.82)"/>
          </g>
          <g id="Group_618" data-name="Group 618" transform="translate(17.041 43.832)">
            <path id="Path_933" data-name="Path 933" class="cls-1" d="M132.974,280.833H103.3a.677.677,0,1,1,0-1.354h29.67a.677.677,0,1,1,0,1.354Z" transform="translate(-102.627 -279.479)"/>
          </g>
          <g id="Group_619" data-name="Group 619" transform="translate(20.935 47.147)">
            <path id="Path_934" data-name="Path 934" class="cls-1" d="M146.848,295.514H121.223a.677.677,0,0,1,0-1.354h25.625a.677.677,0,1,1,0,1.354Z" transform="translate(-120.546 -294.16)"/>
          </g>
          <g id="Group_620" data-name="Group 620" transform="translate(17.153 50.456)">
            <path id="Path_935" data-name="Path 935" class="cls-1" d="M122.8,310.172H103.3a.677.677,0,1,1,0-1.354H122.8a.677.677,0,1,1,0,1.354Z" transform="translate(-102.627 -308.818)"/>
          </g>
          <g id="Group_621" data-name="Group 621" transform="translate(17.041 53.765)">
            <path id="Path_936" data-name="Path 936" class="cls-1" d="M132.974,324.829H103.3a.677.677,0,0,1,0-1.355h29.67a.677.677,0,0,1,0,1.355Z" transform="translate(-102.627 -323.475)"/>
          </g>
          <g id="Group_622" data-name="Group 622" transform="translate(76.143 37.29)">
            <path id="Path_937" data-name="Path 937" class="cls-1" d="M386.006,267.775a8.639,8.639,0,1,1,8.64-8.639A8.649,8.649,0,0,1,386.006,267.775Zm0-15.924a7.285,7.285,0,1,0,7.285,7.285A7.293,7.293,0,0,0,386.006,251.851Z" transform="translate(-377.367 -250.496)"/>
          </g>
          <g id="Group_623" data-name="Group 623" transform="translate(85.814 38.037)">
            <path id="Path_938" data-name="Path 938" class="cls-1" d="M426.623,260.367a8.563,8.563,0,0,1-6.225-2.654.676.676,0,0,1-.009-.929,7.2,7.2,0,0,0,1.521-2.523.677.677,0,0,1,.926-.389,8.627,8.627,0,0,1,4.7,5.639.677.677,0,0,1-.655.85l-.108,0C426.725,260.366,426.674,260.367,426.623,260.367Zm-4.806-3.168a7.2,7.2,0,0,0,4.122,1.782,7.262,7.262,0,0,0-3.042-3.546A8.524,8.524,0,0,1,421.817,257.2Z" transform="translate(-420.209 -253.809)"/>
          </g>
          <g id="Group_624" data-name="Group 624" transform="translate(76.589 37.29)">
            <path id="Path_939" data-name="Path 939" class="cls-1" d="M383.391,257.924a8.646,8.646,0,0,1-3.657-.81.677.677,0,0,1-.354-.839,8.655,8.655,0,0,1,8.155-5.778,8.553,8.553,0,0,1,3.66.812.677.677,0,0,1,.352.838A8.657,8.657,0,0,1,383.391,257.924Zm-2.495-1.795a7.291,7.291,0,0,0,9.135-3.84,7.225,7.225,0,0,0-2.5-.438A7.3,7.3,0,0,0,380.9,256.129Z" transform="translate(-379.342 -250.496)"/>
          </g>
          <g id="Group_625" data-name="Group 625" transform="translate(67.937 55.944)">
            <path id="Path_940" data-name="Path 940" class="cls-1" d="M373.747,350.6H341.7a.677.677,0,0,1-.677-.677V338.133a.678.678,0,0,1,.43-.63l11.016-4.329a.677.677,0,0,1,.717.142l4.374,4.206,4.718-4.222a.677.677,0,0,1,.7-.126l11.022,4.329a.677.677,0,0,1,.43.63V349.92A.677.677,0,0,1,373.747,350.6Zm-31.375-1.355h30.7V338.594l-10.2-4.007-4.876,4.363a.677.677,0,0,1-.921-.016l-4.514-4.341-10.182,4Z" transform="translate(-341.018 -333.127)"/>
          </g>
          <g id="Group_626" data-name="Group 626" transform="translate(73.338 64.642)">
            <path id="Path_941" data-name="Path 941" class="cls-1" d="M386.863,380.4H365.619a.677.677,0,0,1-.677-.677v-7.394a.677.677,0,0,1,1.355,0v6.717h19.889v-6.717a.677.677,0,0,1,1.355,0v7.394A.677.677,0,0,1,386.863,380.4Z" transform="translate(-364.942 -371.656)"/>
          </g>
          <g id="Group_627" data-name="Group 627" transform="translate(78.657 55.943)">
            <path id="Path_942" data-name="Path 942" class="cls-1" d="M399.786,340.136H389.181a.677.677,0,0,1-.676-.713l.3-5.656a.677.677,0,0,1,.676-.642h.036a.678.678,0,0,1,.641.712l-.259,4.943h9.191l-.167-4.915a.677.677,0,0,1,.654-.7.67.67,0,0,1,.7.654l.191,5.615a.679.679,0,0,1-.677.7Z" transform="translate(-388.504 -333.125)"/>
          </g>
          <g id="Group_628" data-name="Group 628" transform="translate(82.367 61.599)">
            <path id="Path_943" data-name="Path 943" class="cls-1" d="M408.8,363.226h-3.187a.677.677,0,0,1-.677-.677v-3.691a.677.677,0,0,1,.677-.677H408.8a.677.677,0,0,1,.677.677v3.692A.677.677,0,0,1,408.8,363.226Zm-2.51-1.354h1.833v-2.337H406.29Z" transform="translate(-404.936 -358.18)"/>
          </g>
          <g id="Group_629" data-name="Group 629" transform="translate(80.739 65.291)">
            <path id="Path_944" data-name="Path 944" class="cls-1" d="M404.516,382.654H398.4a.678.678,0,0,1-.659-.836l1.628-6.768a.677.677,0,0,1,.659-.519h3.187a.677.677,0,0,1,.665.55l1.3,6.768a.677.677,0,0,1-.665.805Zm-5.254-1.354H403.7l-1.038-5.414h-2.094Z" transform="translate(-397.726 -374.531)"/>
          </g>
          <g id="Group_630" data-name="Group 630" transform="translate(80.275 52.229)">
            <path id="Path_945" data-name="Path 945" class="cls-1" d="M399.98,326.267h-.249a.678.678,0,0,1-.47-.189l-3.384-3.257a.677.677,0,0,1-.208-.488v-4.984a.678.678,0,0,1,1-.593,7.315,7.315,0,0,0,6.792.116.677.677,0,0,1,.982.605V322.2a.675.675,0,0,1-.226.5l-3.79,3.391A.683.683,0,0,1,399.98,326.267Zm-2.956-4.222,2.844,2.736,3.225-2.885V318.5a8.691,8.691,0,0,1-6.069-.09v3.632Z" transform="translate(-395.669 -316.672)"/>
          </g>
          <g id="Group_631" data-name="Group 631" transform="translate(23.781 71.908)">
            <path id="Path_946" data-name="Path 946" class="cls-1" d="M161.028,405.2H134.546a.677.677,0,0,1,0-1.355h26.482a.677.677,0,0,1,0,1.355Z" transform="translate(-133.869 -403.846)"/>
          </g>
          <g id="Group_632" data-name="Group 632" transform="translate(56.899 71.908)">
            <path id="Path_947" data-name="Path 947" class="cls-1" d="M292.138,405.2H286.07a.677.677,0,0,1,0-1.355h6.067a.677.677,0,0,1,0,1.355Z" transform="translate(-285.393 -403.846)"/>
          </g>
          <g id="Group_633" data-name="Group 633" transform="translate(15.043 75.71)">
            <path id="Path_948" data-name="Path 948" class="cls-1" d="M120.293,422.038H93.81a.677.677,0,1,1,0-1.354h26.483a.677.677,0,1,1,0,1.354Z" transform="translate(-93.133 -420.684)"/>
          </g>
          <g id="Group_634" data-name="Group 634" transform="translate(2.034 75.71)">
            <path id="Path_949" data-name="Path 949" class="cls-1" d="M38.759,422.038H32.691a.677.677,0,1,1,0-1.354h6.068a.677.677,0,1,1,0,1.354Z" transform="translate(-32.014 -420.684)"/>
          </g>
        </g>
      </g>
    </g>
  </g>
</svg>
