<svg xmlns="http://www.w3.org/2000/svg" width="90.122" height="90.122" viewBox="0 0 90.122 90.122">
  <defs>
    <style>
      .cls-1 {
        fill: #363636;
      }
    </style>
  </defs>
  <g id="repair" transform="translate(0)">
    <path id="Path_961" data-name="Path 961" class="cls-1" d="M45.58,31.3a4.177,4.177,0,1,0,4.177,4.177A4.183,4.183,0,0,0,45.58,31.3Zm0,5.688a1.511,1.511,0,1,1,1.511-1.511A1.513,1.513,0,0,1,45.58,36.993Zm0,0" transform="translate(-34.115 -25.794)"/>
    <path id="Path_962" data-name="Path 962" class="cls-1" d="M109.2,31.3a4.177,4.177,0,1,0,4.177,4.178A4.183,4.183,0,0,0,109.2,31.3Zm0,5.688a1.511,1.511,0,1,1,1.511-1.511A1.513,1.513,0,0,1,109.2,36.993Zm0,0" transform="translate(-86.538 -25.794)"/>
    <path id="Path_963" data-name="Path 963" class="cls-1" d="M172.826,31.3A4.177,4.177,0,1,0,177,35.482,4.182,4.182,0,0,0,172.826,31.3Zm0,5.688a1.511,1.511,0,1,1,1.511-1.511A1.512,1.512,0,0,1,172.826,36.993Zm0,0" transform="translate(-138.963 -25.794)"/>
    <path id="Path_964" data-name="Path 964" class="cls-1" d="M85.234,0H4.887A4.893,4.893,0,0,0,0,4.888V63.725a4.893,4.893,0,0,0,4.888,4.888h8.6a1.333,1.333,0,0,0,.109,1.762L20,76.78a27.331,27.331,0,0,0-1.258,3.032H9.687a1.333,1.333,0,0,0-1.333,1.333v7.644a1.333,1.333,0,0,0,1.333,1.333H35.995a1.333,1.333,0,0,0,1.333-1.333,7.377,7.377,0,1,1,14.753,0,1.333,1.333,0,0,0,1.333,1.333H79.723a1.333,1.333,0,0,0,1.333-1.333V81.145a1.333,1.333,0,0,0-1.333-1.333H70.665a27.331,27.331,0,0,0-1.258-3.032l6.406-6.405a1.334,1.334,0,0,0,.108-1.762h9.311a4.893,4.893,0,0,0,4.888-4.888V30.744a1.333,1.333,0,1,0-2.666,0V63.725a2.224,2.224,0,0,1-2.222,2.222H73.271l-7.858-7.858V48.971a1.334,1.334,0,0,0-1.333-1.333h-2.4V39.423l1.881-1.737a1.333,1.333,0,0,0,.369-1.375L60.732,26a1.334,1.334,0,0,0-1.273-.938H55.9A1.334,1.334,0,0,0,54.63,26l-3.2,10.31a1.333,1.333,0,0,0,.369,1.375l1.882,1.737v8.215h-2.4a1.333,1.333,0,0,0-1.333,1.333v3.466H39.461V50.412l5.12-5.12a1.333,1.333,0,0,0,.391-.943V33.418a1.332,1.332,0,0,0-.4-.948l-7.11-7.022a1.333,1.333,0,0,0-2.27.948V38.281l-3.466,2.182-3.466-2.182v-.76a1.333,1.333,0,0,0-2.666,0v1.5a1.333,1.333,0,0,0,.623,1.128l4.8,3.022a1.332,1.332,0,0,0,1.421,0l4.8-3.022a1.333,1.333,0,0,0,.623-1.128v-9.43L42.3,33.975V43.8l-5.12,5.12a1.333,1.333,0,0,0-.391.943v2.6a1.334,1.334,0,0,0-1.066,1.306v9.057A27.337,27.337,0,0,0,32.7,64.085l-6.033-6.033V49.86a1.333,1.333,0,0,0-.391-.943l-5.12-5.12V33.975L25.6,29.586v1.691a1.333,1.333,0,0,0,2.666,0V26.4a1.334,1.334,0,0,0-2.27-.949l-7.11,7.022a1.332,1.332,0,0,0-.4.948V44.35a1.333,1.333,0,0,0,.391.943L24,50.412v7.677l-7.858,7.858H4.888a2.224,2.224,0,0,1-2.222-2.222V19.375H87.455v5.158a1.333,1.333,0,0,0,2.666,0V4.888A4.893,4.893,0,0,0,85.234,0ZM55.919,37.86,54.227,36.3l2.66-8.568h1.59L61.135,36.3,59.443,37.86a1.334,1.334,0,0,0-.429.98v8.8H56.349v-8.8a1.335,1.335,0,0,0-.43-.98ZM62.747,50.3v7.748l-6.033,6.033a27.473,27.473,0,0,0-3.032-1.258V53.771a1.334,1.334,0,0,0-1.066-1.306v-2.16H62.747ZM33.066,66.89a24.691,24.691,0,0,1,4.385-1.819,1.334,1.334,0,0,0,.943-1.275V55.1h12.62V63.8a1.334,1.334,0,0,0,.944,1.275,24.693,24.693,0,0,1,4.385,1.819,1.334,1.334,0,0,0,1.57-.234l6.148-6.148,7.714,7.715h0l1.209,1.208L66.838,75.58a1.334,1.334,0,0,0-.234,1.57,24.65,24.65,0,0,1,1.819,4.385,1.333,1.333,0,0,0,1.275.943h8.692v4.977H64.835A20.186,20.186,0,0,0,36.5,70.351a1.333,1.333,0,0,0,1.085,2.436A17.52,17.52,0,0,1,62.163,87.456h-7.5a10.044,10.044,0,0,0-19.909,0h-7.5a17.321,17.321,0,0,1,5.485-11.441,1.333,1.333,0,0,0-1.823-1.945,20.261,20.261,0,0,0-6.331,13.386H11.02V82.478h8.692a1.334,1.334,0,0,0,1.275-.943,24.65,24.65,0,0,1,1.819-4.385,1.334,1.334,0,0,0-.234-1.57l-6.148-6.148,1.209-1.208h0l7.714-7.715L31.5,66.656a1.334,1.334,0,0,0,1.57.234ZM2.666,16.709V4.888A2.224,2.224,0,0,1,4.888,2.666H85.234a2.224,2.224,0,0,1,2.222,2.222V16.709Zm0,0" transform="translate(0)"/>
  </g>
</svg>
